<svg xmlns="http://www.w3.org/2000/svg" xmlns:xlink="http://www.w3.org/1999/xlink" width="50" zoomAndPan="magnify" viewBox="0 0 37.5 37.499999" height="50" preserveAspectRatio="xMidYMid meet" version="1.0"><defs><clipPath id="d52b635ac0"><path d="M 0 18.503906 L 18.503906 18.503906 L 18.503906 37.007812 L 0 37.007812 Z M 0 18.503906 " clip-rule="nonzero"/></clipPath><clipPath id="8d4fe73e8e"><path d="M 9.25 18.503906 L 12.195312 24.8125 L 18.503906 27.753906 L 12.195312 30.699219 L 9.25 37.007812 L 6.308594 30.699219 L 0 27.753906 L 6.308594 24.8125 Z M 9.25 18.503906 " clip-rule="nonzero"/></clipPath><clipPath id="3bb4503028"><path d="M 18.503906 0 L 37.007812 0 L 37.007812 18.503906 L 18.503906 18.503906 Z M 18.503906 0 " clip-rule="nonzero"/></clipPath><clipPath id="e6a50742ca"><path d="M 27.753906 0 L 30.699219 6.308594 L 37.007812 9.25 L 30.699219 12.195312 L 27.753906 18.503906 L 24.8125 12.195312 L 18.503906 9.25 L 24.8125 6.308594 Z M 27.753906 0 " clip-rule="nonzero"/></clipPath></defs><g clip-path="url(#d52b635ac0)"><g clip-path="url(#8d4fe73e8e)"><path fill="#9739eb" d="M 0 18.503906 L 18.503906 18.503906 L 18.503906 37.007812 L 0 37.007812 Z M 0 18.503906 " fill-opacity="1" fill-rule="nonzero"/></g></g><g clip-path="url(#3bb4503028)"><g clip-path="url(#e6a50742ca)"><path fill="#9d2fff" d="M 18.503906 0 L 37.007812 0 L 37.007812 18.503906 L 18.503906 18.503906 Z M 18.503906 0 " fill-opacity="1" fill-rule="nonzero"/></g></g></svg>